<svg width="1440" height="1024" viewBox="0 0 1440 1024" fill="none" xmlns="http://www.w3.org/2000/svg">
<rect width="1440" height="1024" fill="#E5E5E5"/>
<g clip-path="url(#clip0)">
<rect width="1440" height="1024" fill="white"/>
<path d="M42.5863 420.241C48.2961 384.78 61.9929 349.591 77.9519 317.58C95.6868 282.006 118.426 250.013 156.767 235.329C200.266 218.67 252.272 214.901 298.229 213.706C374.776 211.715 452.541 221.286 528.207 232.096C561.257 236.817 597.995 241.216 627.736 257.761C639.306 264.198 651.39 274.814 650.976 289.287C650.589 302.829 639.63 315.474 630.969 324.754C614.124 342.803 593.059 356.034 573.273 370.527C540.019 394.884 502.855 405.862 461.922 392.757C425.384 381.059 408.851 349.951 422.817 313.639C430.259 294.291 444.15 279.19 460.507 266.855C462.49 265.359 482.945 248.875 487.789 252.81C489.73 254.387 489.927 257.342 491.224 259.479C495.526 266.564 498.839 270.085 505.573 275.949C529.953 297.183 557.748 310.088 586.409 323.844" stroke="black" stroke-linecap="round" stroke-linejoin="round"/>
<path d="M537.301 225.629C543.713 201.739 560.855 129.539 555.489 153.685C546.478 194.233 536.541 234.804 530.632 275.949C523.664 324.467 531.731 375.05 521.336 422.868C519.234 432.534 519.02 424.229 518.709 420.039C518.127 412.223 517.728 404.417 517.294 396.597" stroke="black" stroke-linecap="round" stroke-linejoin="round"/>
<path d="M482.737 231.085C492.652 221.666 500.146 213.448 512.04 206.431C530.056 195.8 551.468 191.691 571.656 187.636C609.017 180.131 647.066 175.361 685.23 177.734C708.486 179.18 739.334 180.91 760.306 192.385C784.475 205.61 791.156 240.134 793.55 265.036C796.928 300.165 790.471 338.494 767.683 366.485C732.249 410.01 662.418 423.334 610.053 426.708C569.34 429.331 526.799 425.668 486.779 418.422C447.609 411.33 392.985 401.215 359.462 376.59C332.774 356.985 376.444 322.289 391.595 312.73C432.011 287.229 482.831 273.84 529.52 265.946C547.77 262.86 572.953 257.925 562.158 284.639C546.324 323.822 513.437 352.451 482.434 379.52C461.845 397.496 437.774 414.164 420.493 435.6C412.357 445.693 420.054 429.666 421.403 424.586C427.621 401.165 431.655 376.697 439.49 353.754C451.015 320.001 482.153 314.143 513.656 312.932" stroke="black" stroke-linecap="round" stroke-linejoin="round"/>
<path d="M730.094 163.79C739.456 191.501 749.342 218.99 763.035 244.929C785.031 286.597 815.233 334.138 857.41 357.896C876.039 368.39 906.056 379.753 926.525 367.092C953.522 350.391 962.755 303.253 955.019 274.535C948.075 248.755 923.488 239.537 899.142 238.563C861.981 237.076 818.826 248.611 799.006 282.719C784.23 308.149 786.138 344.025 805.675 366.889C819.992 383.644 842.042 387.155 862.766 387.3C904.358 387.593 945.265 376.221 984.524 363.656C1010.24 355.425 1066.21 334.519 1091.23 324.855C1132.73 308.827 1175.7 293.266 1213.59 269.482C1232.36 257.704 1250.5 242.717 1263.61 224.619C1265.97 221.363 1273.27 209.401 1262.5 211.887C1243.59 216.25 1224.16 238.86 1215.31 254.932C1202.46 278.271 1200.71 307.388 1214.1 330.715C1222.83 345.925 1238.77 356.975 1246.74 372.245C1248.91 376.404 1238.41 367.881 1234.51 365.273C1227.47 360.567 1220.37 356.038 1213.09 351.733C1200.97 344.574 1206.62 372.312 1206.62 378.307C1206.62 416.698 1207.84 454.776 1210.06 493.094C1210.92 508.075 1215.55 537.151 1201.77 548.77C1193.99 555.328 1183 549.768 1175.7 546.143C1147.68 532.229 1121.66 513.919 1094.66 498.247C986.043 435.199 869.734 386.983 750.202 348.701C557.697 287.05 355.736 262.336 154.544 250.688C119.916 248.683 73.7879 246.005 37.8372 248.566C15.8405 250.134 -16.3079 253.683 -29.3575 275.747C-54.6867 318.574 49.4775 359.715 71.283 369.315C162.739 409.577 261.522 437.614 360.776 449.241C436.062 458.06 514.113 460.971 589.642 452.979C639.358 447.719 685.845 435.507 728.477 409.227C755.591 392.513 795.894 363.118 793.348 326.067C789.812 274.62 702.484 271.064 667.648 269.28C568.698 264.214 469.397 280.33 387.148 338.597C354.98 361.386 274.949 431.585 324.299 476.22C339.54 490.005 358.225 497.061 377.448 503.502C429.108 520.812 484.174 528.771 538.311 533.007C645.847 541.42 752.358 531.219 855.996 501.683C868.706 498.061 888.518 494.113 900.657 487.032C905.729 484.073 894.911 482.894 894.797 482.889C863.153 481.431 828.518 496.444 800.219 509.16C785.25 515.887 775.41 525.963 766.47 539.373C765.021 541.546 760.265 546.988 761.014 549.982C761.781 553.053 763.301 544.078 764.348 541.09C768.992 527.847 773.08 514.432 777.383 501.077C786.102 474.015 796.853 447.537 804.16 420.039C807.046 409.179 809.327 398.185 811.132 387.098C811.548 384.541 811.35 377.864 813.254 379.621C815.671 381.852 816.848 385.144 818.912 387.705C829.748 401.149 845.097 409.416 861.048 415.593C937.005 445.005 1028.59 452.317 1107.8 432.973C1149.28 422.842 1201.9 403.158 1224.71 363.959C1246.27 326.897 1233.97 285.131 1198.54 262.712C1144.77 228.694 1066.9 223.223 1005.34 225.225C938.604 227.395 855.288 244.832 812.748 302.221C803.763 314.343 793.563 348.148 820.63 345.973C838.733 344.518 858.808 328.57 872.163 318.186C903.521 293.803 929.731 265.05 951.887 232.096C972.243 201.818 990.651 167.774 1001.3 132.668C1007.24 113.069 1010.85 90.0571 1001.8 70.7276C970.657 4.15209 856.714 23.3274 801.533 28.9962C678.847 41.5995 559.345 68.6811 442.319 107.407C382.933 127.058 322.454 148.079 267.107 177.633C244.295 189.814 211.046 207.678 201.024 234.521C185.524 276.039 259.117 281.992 280.749 284.134C372.541 293.222 470.34 275.503 553.872 236.34C579.202 224.464 628.586 197.532 616.924 160.556C610.315 139.601 587.189 131.207 567.816 128.424C514.779 120.804 456.86 131.332 405.539 143.985C324.335 164.006 247.968 202.645 207.289 279.183C161.24 365.824 182.578 471.72 249.223 541.697C317.368 613.249 424.843 653.726 522.548 655.473C587.989 656.643 656.23 644.148 717.16 620.41C747.254 608.686 782.374 591.159 798.198 560.693C815.17 528.015 793.9 493.502 770.916 470.965C752.834 453.236 722.531 427.381 695.739 424.485C685.564 423.385 714.437 453.218 715.139 453.788C732.003 467.469 752.617 476.896 772.331 485.516C808.469 501.318 845.976 513.83 884.49 522.498C962.27 540.003 1047.52 544.352 1125.78 526.338C1143.04 522.366 1164.64 516.408 1173.38 499.056C1183.51 478.941 1175.7 457.548 1175.7 436.61" stroke="black" stroke-linecap="round" stroke-linejoin="round"/>
</g>
<defs>
<clipPath id="clip0">
<rect width="1440" height="1024" fill="white"/>
</clipPath>
</defs>
</svg>
